<?xml version="1.0" encoding="utf-8"?>
<svg version="1.1" id="Layer_1" xmlns="http://www.w3.org/2000/svg" xmlns:xlink="http://www.w3.org/1999/xlink" x="0px" y="0px"
	 viewBox="0 0 1920 1080" style="enable-background:new 0 0 1920 1080;" xml:space="preserve">
<style type="text/css">
	.st0{fill:#D3D3D3;}
	.st1{fill:#A09F9F;}
</style>
<rect class="st0" width="1920" height="1080"/>
<g>
	<g>
		<g>
			<path class="st1" d="M1505.9,499.2c-0.4-10.4-5.5-16.7-5.5-16.7c4.4-13.3,1.8-24.8,1.8-24.8h-7.8c-5.9-16.3-46.7-20.8-46.7-20.8
				c-157.1,16.3-253.4-68.9-437.9-71.9c-184.5-3-292.7,84.7-292.7,84.7c-31.7-6.1-102.8,12.2-102.8,12.2s-195.1,76.1-208.8,92.8
				C392,571.5,421,591.4,421,591.4v19.5c-38.3,11.1,7.2,40.6,7.2,40.6s64.4,4.9,133.3,7.6c-10.5-15.9-16.6-35-16.6-55.4
				c0-55.8,45.4-101.1,101.1-101.1s101.1,45.4,101.1,101.1c0,20.2-6,39-16.3,54.8c111.5-3.4,304.5-7.9,395.2-7
				c37.7,0.4,87.5,0.6,137,0.6c-10-16-15.9-34.9-15.9-55.1c0-57.6,46.9-104.5,104.5-104.5c57.6,0,104.5,46.9,104.5,104.5
				c0,20.1-5.8,38.8-15.6,54.7c8.7-0.1,14.5-0.2,16.2-0.2c12.2-0.6,45.5-23.3,49.5-40c3.9-16.7,5-36.7,9.6-51.7
				c4.6-15,0-49.8,0-49.8S1506.3,509.6,1505.9,499.2z"/>
			<path class="st1" d="M646.1,687c24.6,0,46.5-10.9,61.8-27.8c13.3-14.8,21.6-34.1,21.6-55.5c0-46-37.3-83.4-83.4-83.4
				s-83.4,37.3-83.4,83.4c0,21.8,8.5,41.4,22.2,56.2C600.2,676.5,621.8,687,646.1,687z"/>
			<path class="st1" d="M1351.8,683.7c27,0,50.7-12.6,66.6-31.8c12.3-15,20.1-33.9,20.1-54.8c0-47.9-38.8-86.7-86.7-86.7
				c-47.9,0-86.7,38.8-86.7,86.7c0,21.1,7.8,40.1,20.3,55.1C1301.3,671.2,1325,683.7,1351.8,683.7z"/>
		</g>
	</g>
</g>
</svg>
